# xmcd CD database file
#
# Track frame offsets:
#	150
#	7170
#	29185
#	44110
#	70510
#	76260
#	101865
#	118370
#	136725
#	152490
#	170640
#	184485
#	200960
#
# Disc length: 2824 seconds
#
# Revision: 0
# Processed by: cddbd v1.5.1PL0 Copyright (c) Steve Scherf et al.
# Submitted via: CDex 1.51
#
DISCID=c60b060d
DTITLE=Michael J Laky - Tappin' The Source
DYEAR=2002
DGENRE=Jazz
TTITLE0=Cloud Drift
TTITLE1=Northbound 101
TTITLE2=Somethin' To Me
TTITLE3=Rainbow Of Dreams
TTITLE4=Tappin' The Source
TTITLE5=Chasing Cosmos
TTITLE6=No Doubt At All
TTITLE7=Take Me By The Hand
TTITLE8=Short Sand Boogie
TTITLE9=Now and Evermore
TTITLE10=Java Jenny
TTITLE11=Retrocurrent
TTITLE12=So Long Solo
EXTD=YEAR: 2002
EXTT0=
EXTT1=
EXTT2=
EXTT3=
EXTT4=
EXTT5=
EXTT6=
EXTT7=
EXTT8=
EXTT9=
EXTT10=
EXTT11=
EXTT12=
PLAYORDER=
